<?xml version="1.0" encoding="utf-8"?>
<!-- Generator: Adobe Illustrator 26.0.2, SVG Export Plug-In . SVG Version: 6.00 Build 0)  -->
<svg version="1.1" id="Слой_1" xmlns="http://www.w3.org/2000/svg" xmlns:xlink="http://www.w3.org/1999/xlink" x="0px" y="0px"
	 viewBox="0 0 1700.79 1133.86" style="enable-background:new 0 0 1700.79 1133.86;" xml:space="preserve">
<style type="text/css">
	.st0{fill:#75D1CE;}
	.st1{fill:url(#SVGID_1_);}
	.st2{fill:url(#SVGID_00000029015924827705980680000012556073448330437298_);}
	.st3{fill:#0C6C75;}
	.st4{fill-rule:evenodd;clip-rule:evenodd;fill:#D6F5FF;}
	.st5{fill:#168594;}
	.st6{fill:#FFFFFF;}
	.st7{fill:url(#SVGID_00000072997555272244865160000018219384025875029692_);}
	.st8{fill:#94E6FF;}
	.st9{fill:url(#SVGID_00000056397812397323053100000015088871488965511055_);}
	.st10{fill:#1CADBD;}
	.st11{fill:#B2E866;}
	.st12{fill:url(#SVGID_00000073706371052715919690000010106028556874500246_);}
	.st13{fill:url(#SVGID_00000054234016389567178500000011652941491675602615_);}
	.st14{fill:#81BF55;}
	.st15{fill:none;}
	.st16{fill:#FAEECD;}
	.st17{fill:#66A347;}
	.st18{fill:#52873D;}
	.st19{fill:#FFD780;}
	.st20{fill:#FEC955;}
	.st21{fill:#D6F5FF;}
	.st22{fill:#FFE499;}
	.st23{fill:#EDEDED;}
	.st24{fill:#F7C453;}
	.st25{fill:#FAE5AA;}
	.st26{fill:#FFDC8F;}
	.st27{fill:url(#SVGID_00000013881269597323380490000004406798344697814696_);}
	.st28{fill:#1991A3;}
	.st29{fill:#8F8378;}
	.st30{fill:#9CE6E1;}
	.st31{fill:#9E9185;}
	.st32{fill:#AB9D90;}
	.st33{fill:#5ACCC8;}
	.st34{fill:#84C457;}
	.st35{fill:url(#SVGID_00000038370763264445374410000007738291293442407339_);}
	.st36{fill-rule:evenodd;clip-rule:evenodd;fill:#1CADBD;}
	.st37{fill-rule:evenodd;clip-rule:evenodd;fill:#0E7F8A;}
	.st38{fill-rule:evenodd;clip-rule:evenodd;fill:#FAC825;}
	.st39{fill-rule:evenodd;clip-rule:evenodd;fill:#F2F2F2;}
	.st40{fill-rule:evenodd;clip-rule:evenodd;fill:#FFE180;}
	.st41{fill-rule:evenodd;clip-rule:evenodd;fill:#FFFFFF;}
	.st42{fill-rule:evenodd;clip-rule:evenodd;fill:#FFDA26;}
</style>
<g>
	<rect x="1" class="st0" width="1700.79" height="1133.86"/>
	<linearGradient id="SVGID_1_" gradientUnits="userSpaceOnUse" x1="886.1429" y1="759.3202" x2="886.1429" y2="302.1228">
		<stop  offset="0" style="stop-color:#1991A3"/>
		<stop  offset="0.1227" style="stop-color:#1A9CAB"/>
		<stop  offset="0.421" style="stop-color:#1CB0BB"/>
		<stop  offset="0.7156" style="stop-color:#1DBDC4"/>
		<stop  offset="1" style="stop-color:#1DC1C7"/>
	</linearGradient>
	<path class="st1" d="M1203.02,422.12c-42,0-57,92.75-104.65,92.75c-50.75,0-122.24-212.75-192.47-212.75
		c-72.87,0-113.87,205.89-183.47,205.89c-40.4,0-87.96-108.69-140.78-108.69c-53.6,0-93.11,146.8-160.31,146.8
		c-30.65,0-43.92-28-75.52-28c-43.6,0-73.85,60.6-106.25,154.4c-22.89,66.26,19.2,86.8,84,86.8c84,0,889.33-2.96,1060.28-2.96
		c107.77,0,161.47-22.96,154.57-61.54c-6.6-36.9-30.63-80.6-44.4-104.1c-39.36-67.16-59-93-86.4-93c-30.26,0-40.2,42-75.6,42
		C1286.02,539.72,1248.22,422.12,1203.02,422.12z"/>
	
		<linearGradient id="SVGID_00000005978518603931275170000014342429919136585123_" gradientUnits="userSpaceOnUse" x1="1269.0997" y1="618.724" x2="1269.0997" y2="439.7227">
		<stop  offset="0" style="stop-color:#15788F"/>
		<stop  offset="0.1896" style="stop-color:#178B9D"/>
		<stop  offset="0.4651" style="stop-color:#199FAC"/>
		<stop  offset="0.7373" style="stop-color:#1BACB5"/>
		<stop  offset="1" style="stop-color:#1BB0B8"/>
	</linearGradient>
	<path style="fill:url(#SVGID_00000005978518603931275170000014342429919136585123_);" d="M1203.02,422.12
		c-18.77,0-5.64,24.37,18.46,42.01c39.36,28.79,55.17,57.15,28.86,55.59c-39.6-2.35-0.45,40.43,32.8,64.9
		c38.07,28.02,45.89,17.17,41.4-8.8c-2.3-13.3,9.2-20.12,15.72-24.92c6.24-4.59,5.71-11.18-8.25-11.18
		C1286.02,539.72,1248.22,422.12,1203.02,422.12z"/>
	<path class="st3" d="M1373.22,671.77c-0.95,11.95-37.82,7.87-65.19,11.82c-20.77,3-76.85,20.65-105.6,18.78
		c-59.07-3.85-95.84-24.06-91.27-35.06c7.8-18.79,42.46,7.99,84.67,1.81c17.76-2.6,24.79-11.73,34.05-13.67
		c13.4-2.8,24.21,3.81,38.75,0c8.24-2.16,25.21-13.85,32.68-12.94c19.72,2.41,17.37,16.46,39.72,14.06
		C1367.04,653.78,1373.87,663.47,1373.22,671.77z"/>
	<path class="st4" d="M1126.94,563.89c6-2.73,18.8-7.68,20.66-8.18c1.71-0.46,5.74,0.47,8.22,0.62l2.69-0.72
		c0-0.06-0.01-0.11-0.01-0.17c0-2.46,1.99-4.45,4.45-4.45c0.06,0,0.11,0.01,0.17,0.01l8.6-32.09c0.14-0.53,0.68-0.84,1.21-0.7
		c0.56,0.15,0.81,0.79,0.71,1.82c-0.64,6.56-2.75,20.13-3.24,21.98c-0.46,1.71-3.27,4.73-4.64,6.81l-0.72,2.68
		c1.41,0.75,2.37,2.23,2.37,3.94c0,0.87-0.25,1.68-0.69,2.37l23.49,23.49c0.39,0.39,0.39,1.01,0,1.4c-0.41,0.41-1.09,0.3-1.93-0.3
		c-5.36-3.83-16.06-12.44-17.41-13.8c-1.25-1.25-2.46-5.2-3.58-7.43l-1.96-1.96c-0.22,0.14-0.46,0.26-0.71,0.36l2.69,145.12h-8.7
		l2.69-145.12c-0.98-0.39-1.79-1.13-2.28-2.05l-32.08,8.6c-0.53,0.14-1.07-0.17-1.21-0.7C1125.56,564.86,1126,564.32,1126.94,563.89
		z"/>
	<path class="st4" d="M1198.27,567.29c5.91-0.98,18.31-2.32,20.06-2.32c1.61,0,4.93,1.76,7.07,2.47h2.53
		c0.41-1.8,2.01-3.15,3.94-3.15c0.42,0,0.81,0.08,1.18,0.2l15.1-26.16c0.25-0.43,0.8-0.58,1.23-0.33c0.46,0.26,0.52,0.89,0.19,1.77
		c-2.1,5.61-7.15,17.02-8.02,18.53c-0.81,1.4-3.99,3.39-5.68,4.89l-1.27,2.19c0.8,0.74,1.3,1.79,1.3,2.96c0,1.17-0.51,2.22-1.3,2.96
		l15.1,26.15c0.25,0.43,0.1,0.98-0.33,1.23c-0.46,0.26-1.03,0.01-1.63-0.71c-3.81-4.62-11.17-14.7-12.04-16.21
		c-0.81-1.4-0.94-5.15-1.39-7.36l-0.94-1.62l2.43,134.65h-7.91l2.45-135.33c-1.22-0.49-2.14-1.55-2.43-2.85h-30.19
		c-0.5,0-0.9-0.4-0.9-0.9C1196.84,567.81,1197.35,567.44,1198.27,567.29z"/>
	<path class="st4" d="M1263.2,578.15c0.12-0.44,0.62-0.64,1.43-0.56c5.14,0.49,15.79,2.12,17.24,2.51c1.34,0.36,3.72,2.56,5.35,3.63
		l2.12,0.56c0.59-1.11,1.74-1.87,3.08-1.87c0.68,0,1.31,0.2,1.85,0.54l18.39-18.47c0.3-0.3,0.79-0.3,1.1,0
		c0.32,0.32,0.24,0.86-0.23,1.52c-2.99,4.21-9.73,12.61-10.79,13.68c-0.98,0.99-4.08,1.94-5.82,2.82l-1.54,1.55
		c0.34,0.54,0.55,1.17,0.55,1.86c0,1.34-0.76,2.48-1.86,3.07l6.8,25.16c0.11,0.41-0.13,0.84-0.55,0.95
		c-0.44,0.12-0.86-0.22-1.2-0.96c-1.47-3.2-3.74-8.88-5.17-12.63l1.9,109.63h-6.82l2.11-121.99c-1.29-0.52-2.2-1.77-2.2-3.24
		c0-0.04,0.01-0.08,0.01-0.12l-25.19-6.69C1263.34,578.99,1263.09,578.56,1263.2,578.15z"/>
	<polygon class="st5" points="1542.11,653.42 1531.62,716.23 1552.6,716.23 	"/>
	<polygon class="st5" points="1466.61,653.74 1456.97,709.2 1476.25,709.2 	"/>
	<polygon class="st5" points="1559.49,674.12 1549,736.93 1569.98,736.93 	"/>
	<polygon class="st5" points="1589.61,694.82 1579.97,750.28 1599.25,750.28 	"/>
	<polygon class="st5" points="1479.24,642.52 1466.61,712.41 1491.86,712.41 	"/>
	<polygon class="st5" points="1494.61,662.31 1484.97,717.77 1504.25,717.77 	"/>
	<polygon class="st5" points="1086.08,610.45 1077.25,661.64 1094.92,661.64 	"/>
	<polygon class="st5" points="1095.73,618.44 1086.08,673.89 1105.37,673.89 	"/>
	<polygon class="st5" points="1385.84,626.01 1376.2,681.47 1395.49,681.47 	"/>
	<polygon class="st5" points="1401.04,637.38 1391.4,692.84 1410.69,692.84 	"/>
	<path class="st3" d="M1587.61,741.1c-9.57,2.64-30.09-5.95-67.99-20.58c-37.9-14.62-99.92-23.94-95.86-38.48
		c2.69-9.63,20.45-21.62,57.69-4.72c12.35,5.6,23.81,3.66,28.1,4.15c15.19,1.71,13.21,11.48,20.18,14.17
		c11.66,4.5,18.81,2.34,24.92,6.38c9.7,6.4,3.5,17.8,20.4,20.53C1591.49,725.2,1598.2,738.17,1587.61,741.1z"/>
	<polygon class="st5" points="1143.35,628.95 1133.96,684.41 1152.74,684.41 	"/>
	<polygon class="st5" points="1419.62,628.14 1409.98,683.6 1429.27,683.6 	"/>
	<polygon class="st5" points="1447.32,642.52 1437.68,697.97 1456.97,697.97 	"/>
	<rect x="1" y="769.32" class="st6" width="1700.79" height="364.54"/>
	
		<linearGradient id="SVGID_00000046320034221994730540000016673301745028108981_" gradientUnits="userSpaceOnUse" x1="1003.4536" y1="611.4633" x2="1003.4536" y2="312.3229">
		<stop  offset="0" style="stop-color:#15788F"/>
		<stop  offset="0.1896" style="stop-color:#178B9D"/>
		<stop  offset="0.4651" style="stop-color:#199FAC"/>
		<stop  offset="0.7373" style="stop-color:#1BACB5"/>
		<stop  offset="1" style="stop-color:#1BB0B8"/>
	</linearGradient>
	<path style="fill:url(#SVGID_00000046320034221994730540000016673301745028108981_);" d="M1098.37,514.87
		c-50.75,0-122.24-212.75-192.47-212.75c-34.12,0,5.45,31.79,37.46,55.2c13.4,9.8,12.4,24.9-6.8,31.2c-24.96,8.19-18.8,25.8,9.48,44
		c32.36,20.83,62.35,38.04,59.86,55.6c-2.43,17.2-21.14,12.8-22.34,27.6c-1.1,13.58,40.3,26.4,53.2,67.58
		c8.42,26.88,33,20.84,34.4,0c0.91-13.49,3.85-25.72,22.73-36.02C1115.72,535.37,1123.75,514.87,1098.37,514.87z"/>
	<path class="st3" d="M1001.01,608.85c-2.35,9.32-28.63-0.94-61.98,2.72c-32.83,3.6-52.65,17.9-81.6,25.36
		c-33.27,8.57-71.93,13.21-72.8,4.1c-1-10.4,12.49-8.5,21.5-12.5c6.71-2.98,4.7-13.95,13.05-15.45c9.84-1.77,25.05,3.6,32.55-1.39
		c7.07-4.7,9.51-21.23,18.3-25.91c16.63-8.87,29.68,0.78,40.2,1.05c17.25,0.45,31.07-6.69,45.4-3.53c8.12,1.79,12.7,9.39,19.3,11.12
		c4.45,1.17,10.3-1,15.97,0.56C997.7,596.86,1002.32,603.62,1001.01,608.85z"/>
	<g>
		<polygon class="st6" points="916,620.18 882.56,620.18 882.56,556.38 899.28,535.26 916,556.38 		"/>
		<rect x="916" y="556.38" class="st8" width="42.02" height="63.8"/>
		
			<linearGradient id="SVGID_00000118384476934045256160000007749235085925846676_" gradientUnits="userSpaceOnUse" x1="958.0208" y1="545.8228" x2="899.2808" y2="545.8228">
			<stop  offset="0" style="stop-color:#254F57"/>
			<stop  offset="1" style="stop-color:#35A5B3"/>
		</linearGradient>
		<polygon style="fill:url(#SVGID_00000118384476934045256160000007749235085925846676_);" points="899.28,535.26 941.29,535.26 
			958.02,556.38 916,556.38 		"/>
		<rect x="924.03" y="569.42" class="st10" width="6.22" height="22.27"/>
		<rect x="937.06" y="569.42" class="st10" width="6.22" height="22.27"/>
	</g>
	<path class="st3" d="M541.82,609.72c8.7,10.7-48.29,66.58-105.3,82.7c-44.36,12.55-104.09,2.4-143.1,2.4
		c-89.13,0-162.37,74.25-165.87,54.9c-3.61-19.96-5.49-45.58,7.27-61.59c5.27-6.61,19.16-6.03,26.76-11.51
		c11.3-8.15,15.82-23.78,29.84-32.5c24.6-15.3,39.24,3,62.7,3c9.69,0,21-13.42,33.3-17.4c20.4-6.6,39.94,14.46,57,15.8
		c22.16,1.74,25.18-1.97,43.4-9.59c22-9.2,47.2,12.59,73.2,4.79C511.58,625.55,531.89,597.51,541.82,609.72z"/>
	<path class="st11" d="M1341,669.06c82.23,0,284.63,74.67,284.63,102.46c0,20.2-153.8-26.6-99.8,12.6
		c18.83,13.67-16.4,20.89-68.86,20.89c-217.54,0-978.74-7.29-1178.54-7.29c-40.8,0-156.6,0.6-156.6-33.6
		c0-29.4,92.53-111.6,203.2-85.97c128.73,29.81,152-19.23,216.8-68.43c22.21-16.86,56.4-50.8,140.23,8.26
		c33.72,23.76,77.14,23.19,94.97,23.19c74.56,0,119.56-41.45,183.2-41.45c51.2,0,128.15,60.44,176.67,79.95
		C1209.62,708.92,1268.62,669.06,1341,669.06z"/>
	
		<linearGradient id="SVGID_00000131325406455197482560000009103288964440555930_" gradientUnits="userSpaceOnUse" x1="664.3697" y1="608.5824" x2="664.3697" y2="426.9201">
		<stop  offset="0" style="stop-color:#15788F"/>
		<stop  offset="0.1896" style="stop-color:#178B9D"/>
		<stop  offset="0.4651" style="stop-color:#199FAC"/>
		<stop  offset="0.7373" style="stop-color:#1BACB5"/>
		<stop  offset="1" style="stop-color:#1BB0B8"/>
	</linearGradient>
	<path style="fill:url(#SVGID_00000131325406455197482560000009103288964440555930_);" d="M722.42,508.01
		c-40.4,0-87.96-108.69-140.78-108.69c-11.1,0-7.33,10.74,9.3,20.6c21.6,12.8,39.07,32.6,12.8,32.6c-20.8,0-15.11,15.17-5.8,20.8
		c21.91,13.25,55.86,21.19,53,32.5c-2.2,8.7-37.2,12.3-8.2,39.9c28.21,26.85,92.46,54.91,85.56,16.33
		C721.7,525.16,792.02,508.01,722.42,508.01z"/>
	
		<linearGradient id="SVGID_00000115509830836756153380000015517308477766733442_" gradientUnits="userSpaceOnUse" x1="401.977" y1="613.0474" x2="401.977" y2="493.3567">
		<stop  offset="0" style="stop-color:#15788F"/>
		<stop  offset="0.1896" style="stop-color:#178B9D"/>
		<stop  offset="0.4651" style="stop-color:#199FAC"/>
		<stop  offset="0.7373" style="stop-color:#1BACB5"/>
		<stop  offset="1" style="stop-color:#1BB0B8"/>
	</linearGradient>
	<path style="fill:url(#SVGID_00000115509830836756153380000015517308477766733442_);" d="M431.65,593.72
		c-26.7-4.5-32.92-21.04-49.9-42.6c-21.5-27.3-57.2-18.6-42.23-32.57c2.08-0.29,4.16-0.43,6.3-0.43c31.6,0,44.87,28,75.52,28
		c12.6,0,24.22-5.16,35.15-13.55c0,0,0,0,0.01,0c13.13,3.77-28.06,26.64-6.43,31.15C487.51,571.52,458.86,598.31,431.65,593.72z"/>
	<path class="st6" d="M928.53,788.28c0,0.93-38.61,1.62-95.15,2.27c-45.15,0.52-103.52-0.41-149.71-0.41
		c-104.04,0-188.37-1.35-188.37-3.01c0-1.66,84.68-1.5,188.71-1.5S928.53,786.62,928.53,788.28z"/>
	<path class="st14" d="M1368.28,685.73c84.28-4.89,256.15,67.66,256.15,85.79c0,20.2-153.8-26.6-99.8,12.6
		c18.83,13.67-16.4,20.89-68.86,20.89c-217.54,0-978.74-7.29-1178.54-7.29c-40.8,0-156.6,0.6-156.6-33.6
		c0-29.4,99.49-114.14,206.25-75.33c147.36,53.56,163.8-3.06,222.8-59.4c20.17-19.26,54.32-62.18,132.77-4.4
		c45.63,33.6,78.33,37.4,116.51,34.4c74.33-5.84,97.33-51.04,160.92-53.4c72.7-2.7,134.73,67.04,182.28,88.83
		C1237.68,738.59,1268.98,691.49,1368.28,685.73z"/>
	<polygon class="st15" points="597.16,727.52 679.24,727.53 647.78,701.84 628.62,753.2 	"/>
	<g>
		<path class="st11" d="M1520.75,780.14c-3.82-0.01-10-0.01-14.8-0.01c-23.96,0-42.71-8.41-62.54-17.32
			c-21.72-9.74-44.18-19.82-76.06-19.82c-140.39,0-653.74,0.11-653.74,0.11c-43.26,0-62.95-12.7-83.81-26.14
			c-22.6-14.57-45.97-29.63-104.23-29.63h-88.54v-8.4h88.54c60.73,0,86.27,16.45,108.79,30.97c19.78,12.76,38.46,24.79,79.25,24.79
			c0,0,513.35-0.11,653.74-0.11c33.67,0,58.01,10.93,79.49,20.57c19,8.52,36.95,16.57,59.11,16.57h10.94
			C1515.36,773.39,1516.36,776.06,1520.75,780.14z"/>
	</g>
	<path class="st16" d="M1042.69,628.62c-11.77-6.37-23.28-12.15-34.67-16.96l-0.16,0.34c23.99,10.87,31.13,23.94,29.62,30.96
		c-1.44,6.67-10.13,11.33-21.13,11.33H882.56c-24.62,0-37.02,6.08-49,11.98c-12.71,6.23-25.84,12.68-55.42,12.68h-0.76
		c-10.34-0.01-125.66-0.07-238.38-0.11c-34.08-0.01-67.94-0.01-98.58-0.01H385.3c-20.81,0.01-38.1,0.02-50.2,0.04
		c-0.89,0-3.44,0-6.99,0.01c24.78,5.57,45.6,8.16,63.54,8.36c110.44,0,285.37,0.06,385.74,0.12h0.76c31.52,0,45.55-6.89,59.11-13.55
		c11.64-5.71,22.62-11.11,45.3-11.11h133.79c15.23,0,27.46-7.13,29.34-17.95C1046.48,640.19,1046.1,634.82,1042.69,628.62z"/>
	<g>
		<path class="st17" d="M737.07,688.65c-3.17-4.92-3.36-9.95-1.91-14.97c2.58-8.9,3.09-17.78-5.96-26.68
			c-4.65-4.57-12.41-9.01-16.05-2.95c-2.3,3.83,1.03,13.68,0.91,20.87c-0.11,6.45-4.97,11.93-8.18,15.52
			c-11.55,12.93-11.16,43.13,13.1,47.16C734.76,730.22,751.94,711.67,737.07,688.65z"/>
		<path class="st18" d="M737.07,688.65c-3.17-4.92-3.36-9.96-1.91-14.96c2.58-8.9,3.08-17.78-5.96-26.69
			c-3.88-3.82-9.95-7.55-13.94-5.14c7.85,1.82,12.49,11.28,14.29,20.59c1.32,6.8-5.46,14.81-8.09,22.94
			c-3.31,10.2,7.49,21.6-6.55,26.2c-4.31,1.4-6.66,6.2-6.92,11.41c2.92,2.23,6.55,3.85,11,4.6
			C734.75,730.22,751.94,711.68,737.07,688.65z"/>
	</g>
	<g>
		<path class="st17" d="M776.55,643.54c1.95-16.85-15.89-31.27-21.21-29.36c-7.5,2.7-7.28,13.02-6.58,23.54
			c0.36,5.44,1.28,10.18-0.88,15.19c-1.95,4.54-5.49,8.54-5.57,13.83c-0.06,4.74,5.36,9.62,3.1,13.97
			c-1.91,3.66-6.24,9.18-8.16,13.22c-3.52,7.41-4.61,15.69,1.98,22.51c12.38,12.79,44.22,18.52,46.99-2.91
			c1.53-11.82-3.7-24.1-9.94-34.52c-2.94-4.91-6.39-10.08-5.88-15.79C771,656.78,775.84,649.72,776.55,643.54z"/>
		<path class="st18" d="M776.29,679.02c-2.95-4.91-6.4-10.08-5.88-15.79c0.59-6.44,5.42-13.51,6.13-19.69
			c1.94-16.75-15.71-31.12-21.12-29.38c4.63,1.78,17.36,9.74,11.98,23.23c-2.02,5.06-5.17,8.05-6.94,17.38
			c-2.38,12.6,14.74,27.94,9.13,41.22c-6.84,16.2-33.2,8.7-30.36,20.46c12.37,12.79,44.22,18.53,46.99-2.9
			C787.76,701.71,782.52,689.43,776.29,679.02z"/>
	</g>
	<path class="st19" d="M646.65,769.32c-38.97-40.71-122.58-68.86-219.45-68.86c-96.87,0-180.48,28.15-219.45,68.86H646.65z"/>
	<g>
		<path class="st17" d="M340.92,650.14c-7.9-13.7-17.81-28.13-30.83-19.73c-7.48,4.83-2.53,21.6-10.38,32.82
			c-10.78,15.42-5.36,43.34,22.39,43.34C359.2,706.58,347.56,661.65,340.92,650.14z"/>
		<path class="st18" d="M340.92,650.14c-7.52-13.03-16.85-26.72-28.95-20.8c0.03,0.05,0.07,0.1,0.1,0.15
			c3.05,4.75,11.33,4.22,18.96,16.22c3.34,5.26,5.21,9.14,0.55,17.96c-6.06,11.45,3.23,19.15-1.14,25.26
			c-6.96,9.73-25.59,10.48-21.5,15.02c3.65,1.67,8.02,2.63,13.15,2.63C359.2,706.58,347.56,661.64,340.92,650.14z"/>
	</g>
	<path class="st20" d="M646.65,769.32c-37.35-37.1-117.48-62.74-210.31-62.74c-92.83,0-172.96,25.65-210.31,62.74H646.65z"/>
	<path class="st6" d="M1127.32,351.55c-6.34-7.86-19.72-20.09-36.86-19.41c-14.06,0.56-17.82,6.6-25.3,5.92
		c-10.52-0.96-15.63-29.96-40.81-8.29c-14.36,12.35-16.24-13.51-29.18-23.76c-19.74-15.65-35.9,19.28-44.06,45.54H1127.32z"/>
	<path class="st21" d="M1127.32,351.55c-6.34-5.19-19.72-13.26-36.86-12.81c-14.06,0.37-17.82,4.36-25.3,3.91
		c-10.52-0.63-15.63-19.78-40.81-5.47c-14.36,8.15-16.24-3.57-29.18-10.34c-19.74-10.33-35.9,7.38-44.06,24.72H1127.32z"/>
	<path class="st6" d="M799.42,351.55c-22.55-33.37-49.29-3.06-64-18.96c-31.6-34.17-41.55-27.79-55.45-17.15
		c-27.33,20.9-20.61-34.18-40.68-39.4c-15.69-4.08-24.09,32.72-37.26,41.41c-16.98,11.22-20.36-22.68-35.66-16.67
		c-11.75,4.61-22.07,40.66-27.05,50.78H799.42z"/>
	<path class="st6" d="M513.45,351.55c-0.86-7.9-13.03-34.62-39.34-16.96c-14.08,9.45-12.75-10.95-23.23-18.5
		c-9.36-6.75-25.8,15.01-35.82,35.46H513.45z"/>
	<path class="st21" d="M799.42,351.55c-22.55-24.21-49.29-2.22-64-13.76c-31.6-24.8-41.24-19.6-55.45-12.45
		c-21.22,10.68-20.61-19.43-40.68-23.22c-15.69-2.96-24.09,18.37-37.26,24.68c-16.98,8.14-20.36-16.46-35.66-12.1
		c-11.75,3.35-22.07,29.51-27.05,36.85H799.42z"/>
	<path class="st21" d="M513.45,351.55c-0.86-5.92-13.03-25.95-39.34-12.71c-14.08,7.08-12.75-4.66-23.23-10.32
		c-9.36-5.06-25.8,7.71-35.82,23.03H513.45z"/>
	<path class="st6" d="M405.76,351.55c-1.02-7.83-6.63-15.81-15.86-15.81c-9.22,0-19.39,7.99-24.86,15.81H405.76z"/>
	<path class="st21" d="M405.76,351.55c-1.02-5.16-6.63-10.43-15.86-10.43c-9.22,0-19.39,5.27-24.86,10.43H405.76z"/>
	<path class="st6" d="M1191.95,351.55c-3.51-6.87-11.97-13.89-21.79-13.89c-9.82,0-18.15,7.02-21.54,13.89H1191.95z"/>
	<path class="st21" d="M1191.95,351.55c-2.68-4.53-10.3-9.16-20.11-9.16c-9.82,0-19,4.63-23.21,9.16H1191.95z"/>
	<g>
		<path class="st22" d="M533.21,769.32h-6.34c-5.16-13.75-14.14-27.2-22.36-38.9c-7.99-11.35-17.66-20.99-29.54-27.62
			c4.39,0.44,8.74,0.94,13.03,1.49h0.01c7.28,5.58,13.69,12.3,19.38,19.94c5.68,7.62,10.55,15.8,15.28,24.05
			C526.6,755.12,530.5,761.94,533.21,769.32z"/>
		<path class="st22" d="M556.22,769.32h-6.31c-4.39-12.73-10.66-23.86-18.42-35.17c-7.49-10.88-16.88-21.17-28.58-27.71
			c4.81,0.78,9.54,1.63,14.21,2.56h0.01c6.52,5.3,12.26,11.58,16.87,18.24C543.35,740.78,551.14,753.85,556.22,769.32z"/>
		<path class="st22" d="M582.35,769.32h-6.38c-8.42-22.57-24.55-41.84-43.19-56.9c4.43,1.07,8.78,2.2,13.06,3.4
			C561.83,730.63,575.09,748.75,582.35,769.32z"/>
		<path class="st22" d="M608.21,769.32h-6.46c-3.82-9.17-8.42-18.13-14.08-26.21c-3.61-5.15-8.96-8.86-13.04-13.67
			c-2.32-2.72-5.03-4.98-7.86-7.09c5,1.75,9.86,3.59,14.58,5.52c3.48,3.49,7.37,6.56,10.3,10.5
			C598.59,747.68,603.89,758.47,608.21,769.32z"/>
		<path class="st22" d="M631.47,769.32h-6.68c-3.38-6.3-7.48-12.14-11.92-17.96c-4.2-5.51-8.56-10.9-13.68-15.44
			c5.65,2.81,11.03,5.77,16.1,8.86c0,0,0.01,0,0.01,0.01c0.54,0.67,1.06,1.34,1.58,2.03C622.45,754.05,627.5,761.32,631.47,769.32z"
			/>
		<path class="st22" d="M480.79,769.32h-6.43c-10.98-26.74-26.12-52.48-50.36-68.84c1.07-0.01,2.14-0.01,3.2-0.01
			c2.33,0,4.64,0.01,6.95,0.06h0.01C456.14,718.03,470.27,743.25,480.79,769.32z"/>
		<path class="st22" d="M454.45,769.32h-6.25c-4-13.22-10.88-25.19-18.76-36.55c-7.46-10.75-15.29-23.77-26.14-31.73
			c2.93-0.14,5.88-0.26,8.84-0.35c8.35,7.92,14.92,18.3,21.3,27.38C442.4,740.78,450.22,754.31,454.45,769.32z"/>
		<path class="st22" d="M428.55,769.32h-6.04c-1.66-12.55-8.68-25.63-14.8-35.95c-6.83-11.52-15.24-23.54-26.81-30.71
			c3.05-0.3,6.11-0.56,9.19-0.8c9.41,7.67,16.73,18.23,22.8,28.48C419.54,741.55,426.94,755.74,428.55,769.32z"/>
		<path class="st22" d="M385.76,769.32h-6.34c-4.1-11.75-9.25-23.1-15.53-33.89c-6.07-10.44-13.28-20.26-23.24-27.1
			c2.65-0.49,5.33-0.97,8.03-1.43c7.88,6.56,14.12,14.95,19.43,23.83C375.37,742.92,381.21,755.89,385.76,769.32z"/>
		<path class="st22" d="M363.13,769.32h-6.34c-3.86-11.23-7.46-22.49-13.69-32.68c-5.64-9.25-11.98-17.4-19.85-24.61
			c2.33-0.55,4.67-1.08,7.04-1.58c6.97,6.9,12.76,14.6,17.99,23.16C355.09,744.74,358.88,757.07,363.13,769.32z"/>
		<path class="st22" d="M341.23,769.32h-6.3c-3.12-9.42-7.07-18.54-11.98-27.19c-4.87-8.58-10.68-19.01-18.91-25.03
			c2.28-0.67,4.58-1.32,6.91-1.96h0.01c6.56,6.12,11.53,14.33,15.94,21.85C332.89,747.2,337.65,758.06,341.23,769.32z"/>
		<path class="st22" d="M322.66,769.32h-6.32c-5.84-17.05-14.57-35.18-27.73-47.32c2.08-0.71,4.18-1.42,6.3-2.1h0.01
			C308.07,733.22,316.77,751.63,322.66,769.32z"/>
		<path class="st22" d="M302.25,769.32h-6.52c-6.24-14.04-12.94-29.59-22.98-41.33c1.92-0.79,3.88-1.57,5.86-2.33
			C288.91,738.37,295.72,754.74,302.25,769.32z"/>
		<path class="st22" d="M284.05,769.32h-6.29c-4.12-12.97-11.26-24.61-20.99-34.18c1.88-0.92,3.8-1.84,5.76-2.72
			C272.61,742.76,279.99,755.42,284.05,769.32z"/>
		<path class="st22" d="M262.37,769.32h-6.31c-3.26-9.56-6.94-18.95-13.13-26.82c1.74-1.01,3.5-2,5.3-2.96
			C254.91,748.32,258.81,758.75,262.37,769.32z"/>
		<path class="st22" d="M406.87,769.32h-6.37c-4.67-12.4-9.2-25.24-16.18-36.28c-6.38-10.13-13.44-21.04-23.38-28.03
			c2.74-0.4,5.48-0.76,8.26-1.09c7.63,6.84,13.54,15.76,19.12,24.26C396.49,740.64,401.53,755.29,406.87,769.32z"/>
		<path class="st22" d="M506.62,769.32h-6.49c-5.3-12.22-10.86-24.44-17.62-35.87c-7.46-12.59-17.72-22.63-28.51-32.26
			c3.2,0.17,6.4,0.37,9.56,0.61c8.66,8.04,16.76,16.62,23.03,26.8C494.49,741.42,500.66,755.46,506.62,769.32z"/>
	</g>
	<g>
		<path class="st17" d="M463.59,645.29c-3.24-7.58-3.8-15.36-2.88-23.1c1.63-13.74,1.4-27.44-7.43-41.17
			c-4.54-7.05-11.87-13.9-14.68-4.56c-1.78,5.91,1.99,21.11,2.44,32.21c0.4,9.96-3.55,18.41-6.16,23.94
			c-9.39,19.96-6.71,66.55,15.45,72.77C464.73,709.43,478.75,680.82,463.59,645.29z"/>
		<path class="st18" d="M463.59,645.29c-3.23-7.59-3.8-15.37-2.88-23.09c1.63-13.74,1.4-27.44-7.44-41.18
			c-3.78-5.89-9.54-11.65-12.95-7.92c7.21,2.81,12.12,17.41,14.46,31.77c1.72,10.5-3.77,22.85-5.5,35.4
			c-2.19,15.74,8.41,33.33-3.87,40.42c-3.77,2.17-5.51,9.57-5.35,17.61c2.8,3.44,6.2,5.94,10.26,7.09
			C464.72,709.44,478.75,680.83,463.59,645.29z"/>
	</g>
	<path class="st18" d="M343.64,769.32c33.02-8.73-22.45-35.62-71.99-19.91c-39.35,12.48,0.99-28.62-32.09-28.97
		c-13.51-0.14-27.39,9.45-44.91,13.69c-26.5,6.41-4.47-60.53-35.45-37.18c-13.66,10.3-18.61,28.39-25.28,40.14
		c-6.87,12.12-30.71-35.12-48.37,32.22H343.64z"/>
	<path class="st18" d="M418.2,769.32c-1.42-6.35-7.24-12.83-16.05-12.83c-8.81,0-18.06,6.48-22.84,12.83H418.2z"/>
	<g>
		<g>
			<path class="st6" d="M581.96,762.52l-54.02-8.65c0,0,4.68-24.4,15.16-45.36c9.68-19.37,25.64-41.1,25.64-41.1L581.96,762.52z"/>
			<polygon class="st3" points="593.47,769.32 544.93,769.32 536.2,763.16 561.51,763.16 592.1,765.12 			"/>
		</g>
		<path class="st23" d="M581.96,762.52c0,0-10.86-48.65-14.59-62.06c-2.54-9.1,1.37-33.05,1.37-33.05L581.96,762.52z"/>
	</g>
	<g>
		<path class="st17" d="M429.25,659.72c-3.06-4.17-4.25-8.73-2.36-12.69c5.32-11.11-13.45-27.33-23.63-14.22
			c-5.25,6.76,5.08,17.23-2.95,23.97c-10.73,9-12.23,34.04,14.31,35.96C429.02,693.77,443.6,679.24,429.25,659.72z"/>
		<path class="st18" d="M429.25,659.72c-3.07-4.16-4.26-8.73-2.35-12.69c4.09-8.56-6.1-20.15-15.66-19.02
			c3.73,1.94,9.08,4.65,10.79,8.73c3.71,8.85-5.07,11.55-4.88,18.8c0.27,10.96,9.62,12.87,5.89,21.3
			c-2.83,6.39-17.86,9.47-20.69,12.54c3.15,1.79,7.2,3,12.27,3.37C429.02,693.77,443.61,679.23,429.25,659.72z"/>
	</g>
	<path class="st19" d="M1186.34,734.59c-31.23-32.62-117.7-60.7-195.31-60.7c-77.61,0-125.12,28.08-156.35,60.7H1186.34z"/>
	<path class="st24" d="M1186.34,734.59c-29.3-30.6-110.42-56.94-183.23-56.94c-72.81,0-117.38,26.34-146.68,56.94H1186.34z"/>
	<g>
		<path class="st25" d="M975.74,674.28c-8.34,6.89-14.75,15.91-19.07,23.21c-6.88,11.63-11.45,24.53-15.78,37.1h-3.29
			c7.28-20.69,16.32-44.89,32.53-59.99C971.98,674.47,973.84,674.36,975.74,674.28z"/>
		<path class="st25" d="M953.31,676.29c-6.58,6.4-12.05,14.77-17.04,23.15c-6.58,11.03-11.72,22.82-15.34,35.15h-3.29
			c4.02-13.74,9.89-26.86,17.47-39.08c3.76-6.06,8.18-12.74,13.45-18.52v-0.01h0.01C950.14,676.74,951.71,676.51,953.31,676.29z"/>
		<path class="st25" d="M930.97,680.36c-5.88,7.02-10.81,15.43-14.7,22.06l-0.71,1.2c-5.75,9.79-10.58,20.2-14.39,30.97h-3.28
			c3.96-11.32,9.05-22.26,15.13-32.63l0.52-0.86c3.54-6.01,7.72-13.12,12.64-19.57C927.75,681.12,929.35,680.74,930.97,680.36z"/>
		<path class="st25" d="M906.76,687.52c-10.61,14.72-18.88,30.5-24.66,47.08h-3.28c5.48-15.89,13.16-31.03,22.88-45.17h0.01
			C903.38,688.76,905.05,688.13,906.76,687.52z"/>
		<path class="st25" d="M854.05,716.88c-3.59,5.75-6.8,11.65-9.66,17.71h-3.42c1.85-4.01,3.86-7.94,6.02-11.81l0.01-0.01
			C849.27,720.77,851.62,718.81,854.05,716.88z"/>
		<path class="st25" d="M882.76,698.11c-6.53,11.56-12.92,23.75-18.32,36.48h-3.36c5.03-11.96,10.92-23.38,16.68-33.74
			C879.4,699.92,881.07,699.01,882.76,698.11z"/>
		<path class="st25" d="M997.1,673.95c-14.93,15.86-26.26,35.46-35.11,60.64h-3.31c8.72-25.03,19.81-44.62,34.39-60.68
			C994.41,673.91,995.75,673.93,997.1,673.95z"/>
		<path class="st25" d="M1014.1,674.69c-7.93,9.48-14.6,19.62-19.87,30.24c-4.88,9.82-8.34,20.12-11.3,29.66h-3.25
			c3.5-11.27,7.64-23.44,13.76-34.8c4.75-8.82,10.45-17.32,16.99-25.33C1011.65,674.53,1012.88,674.6,1014.1,674.69z"/>
		<path class="st25" d="M1030.97,676.2c-7.94,8.15-13.87,18.28-18.74,27.58c-5.16,9.85-9.38,20.2-12.54,30.82h-3.28
			c3.74-12.67,8.89-24.84,15.3-36.23c4.14-7.34,9.12-15.47,15.6-22.55C1028.54,675.94,1029.76,676.07,1030.97,676.2z"/>
		<path class="st25" d="M1046.85,678.31c-7,7.26-13.22,16.58-18.89,28.21c-2.95,6.08-5.7,12.72-8.65,20.86
			c-0.19,0.54-0.59,1.5-1.09,2.72c-0.52,1.25-1.15,2.82-1.82,4.49h-2.92c0.07-0.18,0.13-0.36,0.19-0.53
			c2.76-8.12,6.18-17.7,10.64-27.05c5.66-11.87,11.93-21.52,19.02-29.23h0.01C1044.51,677.96,1045.67,678.13,1046.85,678.31z"/>
		<path class="st25" d="M1061.9,680.91c-5.35,6.84-9.9,14.82-14.21,24.82c-1.38,3.16-3.08,6.28-4.74,9.29
			c-1.91,3.49-3.89,7.09-5.36,10.82c-1.06,2.65-1.94,5.51-2.72,8.75h-3.26c0.84-3.52,1.79-6.62,2.94-9.53
			c1.6-4.03,3.72-7.98,5.77-11.81c1.86-3.48,3.79-7.08,5.35-10.76c3.52-8.3,7.74-15.65,12.79-22.22
			C1059.61,680.47,1060.76,680.69,1061.9,680.91z"/>
		<path class="st25" d="M1078.57,684.48c-6.05,7.74-11.24,15.88-15.53,24.3c-2.94,5.8-5.56,11.8-8.1,17.6l-0.07,0.17
			c-1.13,2.58-2.3,5.29-3.4,8.04h-3.35c3.24-8.35,6.98-16.45,9.97-22.72c4.69-9.83,10.5-19.26,17.32-28.13
			C1076.47,683.97,1077.51,684.23,1078.57,684.48z"/>
		<path class="st25" d="M1096.59,689.17c-10.32,13.42-20.23,28.52-24.95,45.42h-3.31c4.66-16.84,14.36-32.11,25.15-46.3
			C1094.53,688.58,1095.56,688.87,1096.59,689.17z"/>
		<path class="st25" d="M1110.65,693.49c-3.98,5.66-7.44,11.82-10.45,17.18l-1.37,2.45c-4.21,7.44-7.56,14.51-10.14,21.47h-3.3
			c2.86-7.8,6.62-15.73,11.4-24.05l1.21-2.11c2.94-5.12,6.11-10.68,9.73-15.89h0.01C1108.73,692.85,1109.69,693.17,1110.65,693.49z"
			/>
		<path class="st25" d="M1127.44,699.53c-0.78,1.4-1.49,2.83-2.2,4.22c-1.1,2.16-2.23,4.4-3.53,6.52c-1.4,2.29-2.93,4.6-4.42,6.83
			c-3.72,5.6-7.54,11.35-9.8,17.5h-3.2c2.3-6.55,6.22-12.76,10.63-19.43c2.76-4.16,5.14-8.5,7.45-12.68
			c0.73-1.34,1.48-2.69,2.23-4.04C1125.56,698.78,1126.51,699.15,1127.44,699.53z"/>
		<path class="st25" d="M1140.61,705.05c-1.34,2.35-2.57,4.79-3.73,7.1c-0.92,1.85-1.8,3.6-2.68,5.16
			c-2.87,5.17-6.01,11.08-8.6,17.28h-3.3c3.26-7.9,7.43-15.48,11.47-22.68c0.74-1.32,1.48-2.71,2.23-4.13
			c0.68-1.28,1.37-2.58,2.08-3.86C1138.93,704.29,1139.77,704.66,1140.61,705.05z"/>
		<path class="st25" d="M1154.09,711.62c-0.53,0.8-1.03,1.62-1.54,2.42l-1.07,1.7c-4.5,7.1-7.54,13.13-9.44,18.84h-3.31
			c1.8-5.54,4.64-11.42,8.71-18.1l1.03-1.72c0.9-1.49,1.85-3.05,2.83-4.6C1152.26,710.66,1153.18,711.14,1154.09,711.62z"/>
		<path class="st25" d="M1167.27,719.33c-0.25,0.34-0.49,0.67-0.72,1.02l-0.16,0.23c-2.58,3.76-6.11,8.89-8.5,14.02h-3.22
			c1.97-4.38,4.68-8.68,7.01-12.37l0.23-0.37c0.88-1.39,1.8-2.78,2.77-4.15C1165.57,718.22,1166.43,718.76,1167.27,719.33z"/>
		<path class="st25" d="M1180.67,729.25c-1.25,1.74-2.41,3.52-3.49,5.34h-4c1.01-1.88,2.12-3.62,3.38-5.3
			c0.53-0.71,1.08-1.4,1.62-2.11C1179.04,727.85,1179.87,728.54,1180.67,729.25z"/>
	</g>
	<g>
		<path class="st26" d="M970,679.62c-5.59,5.83-10.06,12.35-13.33,17.87c-6.88,11.63-11.45,24.53-15.78,37.1h-3.29
			c6.42-18.24,14.2-39.2,27.06-54.25h0.01C966.43,680.07,968.2,679.84,970,679.62z"/>
		<path class="st26" d="M946.75,683.72c-3.82,4.88-7.25,10.3-10.48,15.72c-6.58,11.03-11.72,22.82-15.34,35.15h-3.29
			c4.02-13.74,9.89-26.86,17.47-39.08c2.14-3.46,4.5-7.1,7.1-10.68h0.01C943.72,684.44,945.22,684.07,946.75,683.72z"/>
		<path class="st26" d="M923.44,690.65c-2.69,4.12-5.08,8.21-7.18,11.77l-0.71,1.2c-5.75,9.79-10.58,20.2-14.39,30.97h-3.28
			c3.96-11.32,9.05-22.26,15.13-32.63l0.52-0.86c1.6-2.72,3.32-5.65,5.18-8.65C920.27,691.82,921.83,691.22,923.44,690.65z"/>
		<path class="st26" d="M896.68,703.03c-5.9,10.13-10.78,20.68-14.58,31.56h-3.28c3.37-9.78,7.58-19.27,12.59-28.43
			C893.13,705.09,894.88,704.05,896.68,703.03z"/>
		<path class="st26" d="M870.46,721.37c-2.1,4.34-4.13,8.75-6.02,13.22h-3.36c1.14-2.71,2.33-5.41,3.55-8.06
			C866.51,724.79,868.46,723.07,870.46,721.37z"/>
		<path class="st26" d="M993.62,677.81c-13.24,15.16-23.48,33.6-31.63,56.78h-3.31c8-22.97,18-41.34,30.84-56.63h0.01
			C990.88,677.9,992.24,677.84,993.62,677.81z"/>
		<path class="st26" d="M1011.59,677.77c-6.84,8.58-12.66,17.68-17.36,27.16c-4.88,9.82-8.34,20.12-11.3,29.66h-3.25
			c3.5-11.27,7.64-23.44,13.76-34.8c4.12-7.64,8.94-15.04,14.41-22.09h0.01C1009.1,677.71,1010.35,677.74,1011.59,677.77z"/>
		<path class="st26" d="M1028.67,678.68c-6.8,7.67-12.05,16.72-16.44,25.09c-5.16,9.85-9.38,20.2-12.54,30.82h-3.28
			c3.74-12.67,8.89-24.84,15.3-36.23c3.65-6.47,7.93-13.52,13.32-19.96h0.01C1026.25,678.49,1027.47,678.59,1028.67,678.68z"/>
		<path class="st26" d="M1044.97,680.34c-6.24,6.94-11.86,15.61-17,26.18c-2.95,6.08-5.7,12.72-8.65,20.86
			c-0.19,0.54-0.59,1.5-1.09,2.72c-0.52,1.25-1.15,2.82-1.82,4.49h-2.92c0.07-0.18,0.13-0.36,0.19-0.53
			c2.76-8.12,6.18-17.7,10.64-27.05c5.15-10.8,10.8-19.76,17.14-27.1C1042.63,680.05,1043.79,680.19,1044.97,680.34z"/>
		<path class="st26" d="M1060.6,682.62c-4.8,6.46-8.95,13.93-12.91,23.11c-1.38,3.16-3.08,6.28-4.74,9.29
			c-1.91,3.49-3.89,7.09-5.36,10.82c-1.06,2.65-1.94,5.51-2.72,8.75h-3.26c0.84-3.52,1.79-6.62,2.94-9.53
			c1.6-4.03,3.72-7.98,5.77-11.81c1.86-3.48,3.79-7.08,5.35-10.76c3.2-7.56,6.98-14.33,11.46-20.44
			C1058.29,682.24,1059.44,682.43,1060.6,682.62z"/>
		<path class="st26" d="M1077.52,685.84c-5.6,7.33-10.45,15.01-14.48,22.94c-2.94,5.8-5.56,11.8-8.1,17.6l-0.07,0.17
			c-1.13,2.58-2.3,5.29-3.4,8.04h-3.35c3.24-8.35,6.98-16.45,9.97-22.72c4.44-9.3,9.88-18.25,16.22-26.7
			C1075.4,685.39,1076.47,685.61,1077.52,685.84z"/>
		<path class="st26" d="M1095.79,690.22c-10.02,13.15-19.55,27.91-24.14,44.38h-3.31c4.54-16.4,13.87-31.32,24.32-45.19
			C1093.7,689.66,1094.74,689.94,1095.79,690.22z"/>
		<path class="st26" d="M1110.08,694.34c-3.76,5.42-7.02,11.23-9.88,16.33l-1.37,2.45c-4.21,7.44-7.56,14.51-10.14,21.47h-3.3
			c2.86-7.8,6.62-15.73,11.4-24.05l1.21-2.11c2.77-4.84,5.75-10.04,9.12-14.99C1108.11,693.73,1109.09,694.04,1110.08,694.34z"/>
		<path class="st26" d="M1127.09,700.16c-0.65,1.2-1.25,2.4-1.85,3.59c-1.1,2.16-2.23,4.4-3.53,6.52c-1.4,2.29-2.93,4.6-4.42,6.83
			c-3.72,5.6-7.54,11.35-9.8,17.5h-3.2c2.3-6.55,6.22-12.76,10.63-19.43c2.76-4.16,5.14-8.5,7.45-12.68
			c0.61-1.12,1.22-2.23,1.86-3.36C1125.2,699.45,1126.15,699.82,1127.09,700.16z"/>
		<path class="st26" d="M1140.35,705.52c-1.25,2.21-2.39,4.48-3.48,6.64c-0.92,1.85-1.8,3.6-2.68,5.16
			c-2.87,5.17-6.01,11.08-8.6,17.28h-3.3c3.26-7.9,7.43-15.48,11.47-22.68c0.74-1.32,1.48-2.71,2.23-4.13
			c0.6-1.12,1.19-2.24,1.8-3.36C1138.66,704.78,1139.51,705.14,1140.35,705.52z"/>
		<path class="st26" d="M1153.9,711.91c-0.46,0.71-0.9,1.43-1.34,2.14l-1.07,1.7c-4.5,7.1-7.54,13.13-9.44,18.84h-3.31
			c1.8-5.54,4.64-11.42,8.71-18.1l1.03-1.72c0.84-1.38,1.72-2.83,2.63-4.27C1152.05,710.96,1152.98,711.43,1153.9,711.91z"/>
		<path class="st26" d="M1167.17,719.46c-0.22,0.29-0.42,0.59-0.62,0.89l-0.16,0.23c-2.58,3.76-6.11,8.89-8.5,14.02h-3.22
			c1.97-4.38,4.68-8.68,7.01-12.37l0.23-0.37c0.84-1.34,1.73-2.68,2.66-4C1165.47,718.38,1166.32,718.92,1167.17,719.46z"/>
		<path class="st26" d="M1180.67,729.25c-1.25,1.74-2.41,3.52-3.49,5.34h-4c1.01-1.88,2.12-3.62,3.38-5.3
			c0.53-0.71,1.08-1.4,1.62-2.11C1179.04,727.85,1179.87,728.54,1180.67,729.25z"/>
	</g>
	<g>
		<g>
			<polygon class="st8" points="1077.88,769.32 1111.32,769.32 1111.32,705.52 1094.6,684.4 1077.88,705.52 			"/>
			
				<rect x="1035.86" y="705.52" transform="matrix(-1 -1.224647e-16 1.224647e-16 -1 2113.7322 1474.8456)" class="st6" width="42.02" height="63.8"/>
			
				<linearGradient id="SVGID_00000003795919696715641270000010889499799970303632_" gradientUnits="userSpaceOnUse" x1="7719.0117" y1="694.9628" x2="7777.7515" y2="694.9628" gradientTransform="matrix(-1 0 0 1 8813.6074 0)">
				<stop  offset="0" style="stop-color:#254F57"/>
				<stop  offset="1" style="stop-color:#35A5B3"/>
			</linearGradient>
			<polygon style="fill:url(#SVGID_00000003795919696715641270000010889499799970303632_);" points="1094.6,684.4 1052.58,684.4 
				1035.86,705.52 1077.88,705.52 			"/>
			
				<rect x="1060.27" y="718.56" transform="matrix(-1 -1.224647e-16 1.224647e-16 -1 2126.7629 1461.6036)" class="st10" width="6.22" height="24.49"/>
			
				<rect x="1047.24" y="718.56" transform="matrix(-1 -1.224647e-16 1.224647e-16 -1 2100.7014 1461.6036)" class="st10" width="6.22" height="24.49"/>
		</g>
		<rect x="1017.69" y="724.68" class="st8" width="21.68" height="44.64"/>
		<rect x="966.47" y="724.68" class="st6" width="51.22" height="44.64"/>
		<rect x="1047.24" y="718.56" class="st28" width="6.22" height="4.2"/>
		<rect x="1060.27" y="718.56" class="st28" width="6.22" height="4.2"/>
	</g>
	<path class="st29" d="M1068.53,769.32c2.66-4.44,8.69-8.98,15.38-8.98s12.09,4.54,14.13,8.98L1068.53,769.32z"/>
	<g>
		<path class="st17" d="M1132.22,724.05c-3.06-4.17-4.25-8.73-2.36-12.69c5.32-11.11-13.45-27.33-23.63-14.22
			c-5.25,6.76,5.08,17.23-2.95,23.97c-10.73,9-12.23,34.04,14.31,35.96C1132,758.1,1146.57,743.56,1132.22,724.05z"/>
		<path class="st18" d="M1132.22,724.04c-3.07-4.16-4.26-8.73-2.35-12.69c4.09-8.56-6.1-20.15-15.66-19.02
			c3.73,1.94,9.08,4.65,10.79,8.73c3.71,8.85-5.07,11.55-4.88,18.8c0.27,10.96,9.62,12.87,5.89,21.3
			c-2.83,6.39-17.85,9.47-20.69,12.54c3.15,1.79,7.2,3,12.27,3.37C1131.99,758.1,1146.58,743.56,1132.22,724.04z"/>
	</g>
	<path class="st6" d="M1456.97,805.02c0,25.98-114.6,30.53-263.44,48.68c-118.86,14.5-264.91,5.22-386.51,5.22
		c-273.86,0-528.6-21.6-528.6-61.2c0-19.8,128.06-28.4,307.78-28.4c68.8,0,402,0,507,0
		C1293.46,769.32,1456.97,782.12,1456.97,805.02z"/>
	<path class="st30" d="M1314.05,873.55c0.1,8.73-80.47,16.22-198.5,23.67c-94.25,5.95-216.27-1.38-312.76-0.28
		c-217.31,2.47-393.61-8.24-393.79-23.94c-0.18-15.7,176.71-16.13,394.02-18.6C1020.32,851.92,1313.87,857.85,1314.05,873.55z"/>
	<path class="st30" d="M1456.97,805.02c0,25.98-114.6,30.53-263.44,48.68c-118.86,14.5-264.91,5.22-386.51,5.22
		c-273.86,0-528.6-21.6-528.6-61.2c0-19.8,128.06-14.8,307.78-14.8c68.8,0,402,0,507,0
		C1293.46,782.92,1456.97,782.12,1456.97,805.02z"/>
	<path class="st31" d="M1165.53,918.24c-0.65-10.8-24.22-47.33-88.03-23.18c-34.15,12.92-27.59-14.96-50.54-25.29
		c-20.49-9.22-62.18,20.52-88.81,48.47H1165.53z"/>
	<path class="st32" d="M915.69,918.24c0.54-12.12-7.75-24.49-25.58-24.49c-17.82,0-40.01,12.37-53.09,24.49H915.69z"/>
	<path class="st6" d="M1434.37,845.53c0,1.71-63.42,3-156.3,4.2c-74.17,0.96-170.05-0.75-245.93-0.75
		c-170.9,0-309.44-2.5-309.44-5.57c0-3.08,139.1-2.77,310-2.77S1434.37,842.45,1434.37,845.53z"/>
	<path class="st32" d="M679.04,918.24c-3.94-7.75-13.52-15.67-24.73-15.67c-11.21,0-20.79,7.92-24.73,15.67H679.04z"/>
	<path class="st6" d="M849.44,829.71c0,1.3-55.75,2.28-137.39,3.18c-65.19,0.72-149.47-0.57-216.17-0.57
		c-150.22,0-271.99-1.89-271.99-4.23c0-2.33,122.27-2.1,272.48-2.1S849.44,827.37,849.44,829.71z"/>
	<path class="st33" d="M1504.25,821.92c0,1.43-52.3,2.51-128.88,3.5c-61.16,0.8-140.22-0.63-202.79-0.63
		c-140.92,0-255.15-2.08-255.15-4.65c0-2.57,114.7-2.31,255.61-2.31S1504.25,819.35,1504.25,821.92z"/>
	<path class="st32" d="M1397.95,850.02c-4-10.49-49.56-27.91-83.2-27.91c-33.64,0-44.03,14.1-55.86,27.91H1397.95z"/>
	<path class="st34" d="M379.89,850.02c-0.08-1.41-2.88-8.63-12.21-10.38c-8.98-1.68-17.08,4.22-25.52-0.14
		c-10-5.16-21.07-15.76-48.49-5.39c-23.43,8.86-18.93-10.27-34.68-17.35c-14.06-6.33-42.66,14.08-60.93,33.26H379.89z"/>
	<path class="st34" d="M474.13,850.02c-11.29-6.49-32.06-13.11-50.67-13.11c-18.61,0-29.68,6.62-31.47,13.11H474.13z"/>
	<g>
		<polygon class="st6" points="1274.85,734.59 1241.41,734.59 1241.41,684.76 1258.13,663.64 1274.85,684.76 		"/>
		<rect x="1274.85" y="684.76" class="st8" width="42.02" height="49.83"/>
		
			<linearGradient id="SVGID_00000177447636856817325330000003508889313724338857_" gradientUnits="userSpaceOnUse" x1="1340.7664" y1="674.1996" x2="1255.2251" y2="674.1996">
			<stop  offset="0" style="stop-color:#254F57"/>
			<stop  offset="1" style="stop-color:#35A5B3"/>
		</linearGradient>
		<polygon style="fill:url(#SVGID_00000177447636856817325330000003508889313724338857_);" points="1258.13,663.64 1300.13,663.64 
			1316.87,684.76 1274.85,684.76 		"/>
		<rect x="1282.88" y="703.46" class="st10" width="6.22" height="31.13"/>
		<rect x="1295.91" y="696.15" class="st6" width="36.8" height="38.44"/>
		
			<rect x="1332.7" y="696.15" transform="matrix(-1 -1.224647e-16 1.224647e-16 -1 2708.3772 1430.7393)" class="st8" width="42.97" height="38.44"/>
		<rect x="1248.98" y="703.46" class="st10" width="6.22" height="21.13"/>
		<rect x="1295.91" y="703.46" class="st10" width="20.96" height="31.13"/>
		<rect x="1248.98" y="703.46" class="st28" width="6.22" height="4.2"/>
		<rect x="1282.88" y="703.46" class="st28" width="6.22" height="4.2"/>
		<rect x="1295.91" y="703.46" class="st28" width="20.96" height="4.2"/>
	</g>
	<path class="st29" d="M1055.62,769.32c-0.91-8.06-7.55-16.28-19.07-16.28c-11.52,0-24.59,8.22-31.78,16.28H1055.62z"/>
	<path class="st17" d="M1264.51,769.32c-0.06-0.91-10.27-17.04-28.05-10.31c-15.19,5.75-12.27-6.65-22.48-11.25
		c-9.11-4.1-27.66,9.13-39.5,21.56H1264.51z"/>
	<path class="st17" d="M989.14,769.32c-0.1-1.7-3.47-10.4-14.71-12.51c-10.81-2.03-20.58,5.08-30.74-0.17
		c-12.05-6.22-25.38-18.99-58.41-6.49c-28.22,10.68-22.8-12.36-41.77-20.9c-16.94-7.62-51.39,16.96-73.39,40.06H989.14z"/>
	<g>
		<path class="st36" d="M462.3,470.34v7.81c0,0.98-0.8,1.78-1.78,1.78h-10.85c-0.98,0-1.78-0.8-1.78-1.78v-7.81H462.3L462.3,470.34z
			"/>
		<path class="st36" d="M447.88,465.88h14.41c0.52,0,0.95,0.43,0.95,0.95v2.56c0,0.52-0.43,0.95-0.95,0.95h-14.41
			c-0.52,0-0.95-0.43-0.95-0.95v-2.56C446.93,466.31,447.36,465.88,447.88,465.88L447.88,465.88z"/>
		<path class="st37" d="M462.3,465.88h-5.27c0.52,0,0.95,0.43,0.95,0.95v2.56c0,0.52-0.43,0.95-0.95,0.95h5.27
			c0.52,0,0.95-0.43,0.95-0.95v-2.56C463.25,466.31,462.82,465.88,462.3,465.88L462.3,465.88z"/>
		<path class="st37" d="M460.51,479.93c0.98,0,1.78-0.8,1.78-1.78v-7.81h-14.41v2.06h10.03v5.75c0,0.98-0.8,1.78-1.78,1.78H460.51z"
			/>
		<path class="st36" d="M444.83,455.11h20.52v3.51c0,0.52-0.43,0.95-0.95,0.95h-18.62c-0.52,0-0.95-0.43-0.95-0.95V455.11
			L444.83,455.11z"/>
		<path class="st37" d="M465.35,455.11h-7.8v3.51c0,0.52-0.43,0.95-0.95,0.95h7.8c0.52,0,0.95-0.43,0.95-0.95V455.11L465.35,455.11z
			"/>
		<path class="st38" d="M456.34,395.14c-0.41-0.02-0.83-0.03-1.24-0.03c-0.41,0-0.83,0.02-1.24,0.03
			c-15.99,0.64-28.76,13.82-28.76,29.97c0,12.88,10.93,24.54,19.74,30h10.26h10.26c8.81-5.46,19.74-17.12,19.74-30
			C485.1,408.95,472.33,395.78,456.34,395.14z"/>
		<path class="st39" d="M456.42,395.14c-0.44-0.02-0.89-0.03-1.33-0.03c-0.44,0-0.89,0.02-1.33,0.03
			c-13.74,0.81-24.64,13.92-24.64,29.97c0,12.88,9.46,24.54,17.08,30h8.88h8.88c7.63-5.46,17.08-17.12,17.08-30
			C481.06,409.06,470.16,395.95,456.42,395.14z"/>
		<path class="st38" d="M455.09,395.1c-9.98,0-18.05,13.44-18.05,30c0,12.88,6.58,24.54,11.87,30h6.18h6.18
			c5.29-5.46,11.87-17.12,11.87-30C473.14,408.54,465.07,395.1,455.09,395.1z"/>
		<path class="st39" d="M455.09,395.1c-3.99,0-7.2,13.44-7.2,30c0,12.88,2.63,24.54,4.74,30h2.47h2.47c2.11-5.46,4.74-17.12,4.74-30
			C462.3,408.54,459.08,395.1,455.09,395.1z"/>
		<path class="st40" d="M455.47,421.51c-3.67,7.81-12.28,11.5-19.23,8.24c-6.96-3.26-9.62-12.24-5.96-20.06
			c3.67-7.81,12.28-11.5,19.23-8.24C456.46,404.72,459.13,413.7,455.47,421.51z"/>
		<path class="st41" d="M455.46,421.5c-3.66,7.82-12.28,11.51-19.22,8.24c-3.45-1.61-5.83-4.63-6.93-8.22
			c0.85-8.35,4.67-15.64,10.21-20.43c3.25-1.18,6.79-1.15,9.99,0.34C456.47,404.71,459.13,413.7,455.46,421.5z"/>
		<path class="st41" d="M455.46,421.5c-3.66,7.82-12.28,11.51-19.22,8.24c-3.45-1.61-5.83-4.63-6.93-8.22
			c0.85-8.35,4.67-15.64,10.21-20.43c3.25-1.18,6.79-1.15,9.99,0.34C456.47,404.71,459.13,413.7,455.46,421.5z"/>
		<path class="st42" d="M455.46,421.5c-3.47,7.4-11.35,11.1-18.07,8.71c-0.23-1.67-0.34-3.37-0.34-5.11
			c0-10.31,3.12-19.39,7.89-24.81c1.56,0.09,3.1,0.46,4.58,1.15C456.47,404.71,459.13,413.7,455.46,421.5z"/>
		<path class="st40" d="M455.46,421.5c-3.47,7.4-11.35,11.1-18.07,8.71c-0.23-1.67-0.34-3.37-0.34-5.11
			c0-10.31,3.12-19.39,7.89-24.81c1.56,0.09,3.1,0.46,4.58,1.15C456.47,404.71,459.13,413.7,455.46,421.5z"/>
		<path class="st41" d="M455.46,421.5c-1.68,3.57-4.38,6.27-7.47,7.85c-0.07-1.4-0.09-2.82-0.09-4.25c0-9.3,1.02-17.62,2.61-23.13
			C456.72,405.59,458.94,414.08,455.46,421.5z"/>
		<path class="st41" d="M455.46,421.5c-1.68,3.57-4.38,6.27-7.47,7.85c-0.07-1.4-0.09-2.82-0.09-4.25c0-9.3,1.02-17.62,2.61-23.13
			C456.72,405.59,458.94,414.08,455.46,421.5z"/>
	</g>
</g>
</svg>
